HIERARCHY
ROOT Hips
{
	OFFSET 0.00000 0.00000 0.00000
	CHANNELS 6 Xposition Yposition Zposition Zrotation Yrotation Xrotation 
	JOINT LHipJoint
	{
		OFFSET 0 0 0
		CHANNELS 3 Zrotation Yrotation Xrotation
		JOINT LeftHip
		{
			OFFSET 1.36306 -1.79463 0.83929
			CHANNELS 3 Zrotation Yrotation Xrotation
			JOINT LeftKnee
			{
				OFFSET 2.44811 -6.72613 0.00000
				CHANNELS 3 Zrotation Yrotation Xrotation
				JOINT LeftAnkle
				{
					OFFSET 2.56220 -7.03959 0.00000
					CHANNELS 3 Zrotation Yrotation Xrotation
					JOINT LeftToe
					{
						OFFSET 0.15764 -0.43311 2.32255
						CHANNELS 3 Zrotation Yrotation Xrotation
						End Site
						{
							OFFSET 0.00000 -0.00000 1.18966
						}
					}
				}
			}
		}
	}
	JOINT RHipJoint
	{
		OFFSET 0 0 0
		CHANNELS 3 Zrotation Yrotation Xrotation
		JOINT RightHip
		{
			OFFSET -1.30552 -1.79463 0.83929
			CHANNELS 3 Zrotation Yrotation Xrotation
			JOINT RightKnee
			{
				OFFSET -2.54253 -6.98555 0.00000
				CHANNELS 3 Zrotation Yrotation Xrotation
				JOINT RightAnkle
				{
					OFFSET -2.56826 -7.05623 0.00000
					CHANNELS 3 Zrotation Yrotation Xrotation
					JOINT RightToe
					{
						OFFSET -0.16473 -0.45259 2.36315
						CHANNELS 3 Zrotation Yrotation Xrotation
						End Site
						{
							OFFSET -0.00000 -0.00000 1.21082
						}
					}
				}
			}
		}
	}
	JOINT lowerback
	{
		OFFSET 0 0 0
		CHANNELS 3 Zrotation Yrotation Xrotation
		JOINT Chest
		{
			OFFSET 0.02827 2.03559 -0.19338
			CHANNELS 3 Zrotation Yrotation Xrotation
			JOINT Chest2
			{
				OFFSET 0.05672 2.04885 -0.04275
				CHANNELS 3 Zrotation Yrotation Xrotation
				JOINT lowerneck
				{
					OFFSET 0 0 0
					CHANNELS 3 Zrotation Yrotation Xrotation
					JOINT Neck
					{
						OFFSET -0.05417 1.74624 0.17202
						CHANNELS 3 Zrotation Yrotation Xrotation
						JOINT Head
						{
							OFFSET 0.10407 1.76136 -0.12397
							CHANNELS 3 Zrotation Yrotation Xrotation
							End Site
							{
								OFFSET 0.03720 1.77044 -0.06241
							}
						}
					}
				}
				JOINT LeftCollar
				{
					OFFSET 0 0 0
					CHANNELS 3 Zrotation Yrotation Xrotation
					JOINT LeftShoulder
					{
						OFFSET 3.36241 1.20089 -0.31121
CHANNELS 3 Zrotation Xrotation Yrotation
						JOINT LeftElbow
						{
OFFSET 0 -4.983000 -0.000000
CHANNELS 3 Zrotation Xrotation Yrotation
							JOINT LeftWrist
							{
OFFSET 0 -3.483560 -0.000000
CHANNELS 3 Zrotation Xrotation Yrotation
								JOINT lhand
								{
									OFFSET 0 0 0
CHANNELS 3 Zrotation Xrotation Yrotation
									JOINT LFingers
									{
OFFSET 0 -0.715260 -0.000000
CHANNELS 3 Zrotation Xrotation Yrotation
										End Site
										{
OFFSET 0 -0.576660 -0.000000
										}
									}
								}
								JOINT LThumb
								{
OFFSET 0 0.000000 0.000000
CHANNELS 3 Zrotation Xrotation Yrotation
									End Site
									{
OFFSET 0 -0.585470 0.585470
									}
								}
							}
						}
					}
				}
				JOINT RightCollar
				{
					OFFSET 0 0 0
					CHANNELS 3 Zrotation Yrotation Xrotation
					JOINT RightShoulder
					{
						OFFSET -3.13660 1.37405 -0.40465
CHANNELS 3 Zrotation Xrotation Yrotation
						JOINT RightElbow
						{
OFFSET 0 -5.241900 -0.000000
CHANNELS 3 Zrotation Xrotation Yrotation
							JOINT RightWrist
							{
OFFSET 0 -3.444170 -0.000000
CHANNELS 3 Zrotation Xrotation Yrotation
								JOINT rhand
								{
									OFFSET 0 0 0
CHANNELS 3 Zrotation Xrotation Yrotation
									JOINT RFingers
									{
OFFSET 0 -0.622530 -0.000000
CHANNELS 3 Zrotation Xrotation Yrotation
										End Site
										{
OFFSET 0 -0.501900 -0.000000
										}
									}
								}
								JOINT RThumb
								{
OFFSET 0 0.000000 0.000000
CHANNELS 3 Zrotation Xrotation Yrotation
									End Site
									{
OFFSET 0 -0.509560 0.509560
									}
								}
							}
						}
					}
				}
			}
		}
	}
}
MOTION
Frames: 8
Frame Time: .0083333
9.3722 17.8693 -17.3198 -3.2316 -7.5970 -2.0168 0.0000 0.0000 0.0000 -13.8102 2.5002 3.3502 1.1281 6.7462 18.9656 0.8229 0.7402 -17.4237 0.0598 -1.5779 -4.3405 0.0000 0.0000 0.0000 22.6124 4.5864 1.0031 -1.9501 -8.7613 25.0515 -0.6734 -4.2652 -17.6334 -0.0434 -1.3453 3.6994 1.1730 -0.3951 2.3019 2.7039 -0.4627 0.0030 2.1315 -0.2318 -1.2745 -6.7079 -3.7653 -9.3282 -3.0132 -3.2335 27.8377 -0.3184 -2.5573 10.5560 -0.0000 0.0000 0.0000 30.8103 -43.6055 -29.6611 154.4073 -36.8037 111.3575 38.9427 -20.98 13.7335 0.0 0.0 0.0 -7.1250 0.0 0.0 7.7209 12.6535 5.8971 -0.0000 0.0000 0.0000 -2.6083 -1.1336 15.0356 -10.9661 -18.2362 -1.7653 -18.6457 -0.9673 20.0268 0.0 0.0 0.0 7.1250 0.0 -0.0 9.8154 50.7628 -1.4054
9.3728 17.8666 -17.3192 -3.1009 -7.5883 -2.0638 0.0000 0.0000 0.0000 -13.9682 2.5229 3.4357 1.1174 6.7152 18.8743 0.8366 0.6909 -17.5469 0.0518 -1.4684 -4.0385 0.0000 0.0000 0.0000 22.4485 4.5025 0.9926 -1.9626 -8.7878 25.1338 -0.6799 -4.2029 -17.6645 -0.0423 -1.3269 3.6488 1.0918 -0.3492 2.2999 2.6006 -0.4074 0.0948 2.0683 -0.2042 -1.1810 -6.6396 -3.8590 -9.3879 -2.8352 -3.4300 27.5730 -0.2860 -2.6127 10.4723 0.0000 -0.0000 0.0000 30.8265 -44.0567 -29.6755 154.3472 -36.8638 111.3215 38.8542 -21.0036 13.8037 0.0 0.0 0.0 -7.1250 0.0 0.0 7.6511 12.5854 5.8538 0.0000 -0.0000 0.0000 -2.4295 -1.1468 15.2411 -11.0211 -18.3205 -1.7825 -19.0169 -1.9342 20.0072 0.0 0.0 0.0 7.1250 0.0 -0.0 9.4465 50.8039 -1.3614
9.3692 17.8658 -17.3215 -3.2095 -7.5354 -2.0862 0.0000 0.0000 0.0000 -13.8218 2.5041 3.5075 1.1109 6.6962 18.8185 0.8342 0.7505 -17.5453 0.0712 -1.7211 -4.7356 0.0000 0.0000 0.0000 22.6349 4.5587 1.0410 -1.9755 -8.8148 25.2178 -0.6762 -4.3968 -17.7481 -0.0391 -1.2757 3.5078 1.1533 -0.3414 2.4093 2.6267 -0.3919 0.0915 2.0611 -0.1967 -1.2464 -6.8074 -3.9136 -9.2906 -2.5218 -3.5714 27.3923 -0.1579 -2.6539 10.3988 -0.0000 0.0000 0.0000 30.6003 -44.4541 -30.0462 154.2870 -36.9239 111.2853 39.0645 -21.8637 14.6704 0.0 0.0 0.0 -7.1250 0.0 0.0 7.6407 11.4738 6.0232 -0.0000 0.0000 0.0000 -2.3417 -1.1256 15.5146 -10.9155 -18.1586 -1.7495 -19.7896 -2.9074 19.5235 0.0 0.0 0.0 7.1250 0.0 -0.0 8.5349 50.434 -1.1503
9.3726 17.8597 -17.3260 -2.9561 -7.3832 -2.1994 0.0000 0.0000 0.0000 -14.1244 2.3274 3.6587 1.1085 6.6893 18.7980 0.8390 0.7988 -17.6136 0.0815 -1.8412 -5.0670 0.0000 0.0000 0.0000 22.3293 4.3856 1.0731 -1.9854 -8.8357 25.2827 -0.6915 -4.3371 -17.8768 -0.0420 -1.3220 3.6352 0.8608 -0.3917 2.5781 2.5932 -0.4630 0.0854 2.1949 -0.2304 -1.3433 -6.9375 -3.8700 -9.1998 -2.3596 -3.5361 27.3482 -0.0716 -2.6311 10.3704 0.0000 -0.0000 0.0000 30.4616 -44.5899 -30.3456 154.2165 -36.9941 111.243 39.6617 -22.5335 15.6595 0.0 0.0 0.0 -7.1250 0.0 0.0 7.8506 10.119 6.4113 0.0000 -0.0000 0.0000 -2.3361 -1.188 14.8471 -10.6430 -17.739 -1.6655 -19.8556 -1.6965 19.5344 0.0 0.0 0.0 7.1250 0.0 -0.0 8.4741 50.4559 -1.1466
9.3733 17.8536 -17.3317 -2.9110 -7.3527 -2.2688 0.0000 0.0000 0.0000 -14.1889 2.2258 3.7263 1.1123 6.7003 18.8305 0.8497 0.7598 -17.7088 0.0677 -1.6785 -4.6181 0.0000 0.0000 0.0000 22.2925 4.3660 1.1269 -1.9889 -8.8429 25.3050 -0.6915 -4.4363 -17.9400 -0.0350 -1.2081 3.3217 0.7451 -0.4222 2.6807 2.6374 -0.5047 0.1092 2.3080 -0.2504 -1.3737 -7.0847 -3.7921 -9.0398 -2.2151 -3.4526 27.1810 0.0203 -2.5866 10.2820 -0.0000 0.0000 0.0000 30.3497 -44.6309 -30.3048 154.1553 -37.0549 111.2061 39.804 -21.2676 14.9109 0.0 0.0 0.0 -7.1250 0.0 0.0 8.0762 11.0093 6.4513 -0.0000 0.0000 0.0000 -2.3848 -1.1891 14.6828 -10.5554 -17.6035 -1.6389 -20.083 0.0374 21.2003 0.0 0.0 0.0 7.1250 0.0 -0.0 8.8041 52.2088 -1.5724
9.3689 17.8530 -17.3350 -3.0434 -7.3807 -2.2750 0.0000 0.0000 0.0000 -14.0111 2.2992 3.6317 1.1213 6.7266 18.9078 0.8530 0.6496 -17.6991 0.0563 -1.5312 -4.2116 0.0000 0.0000 0.0000 22.5299 4.6028 1.1924 -1.9875 -8.8400 25.2961 -0.6798 -4.7249 -18.0032 -0.0313 -1.1426 3.1413 0.7687 -0.4190 2.7033 2.7401 -0.4985 0.1302 2.4004 -0.2474 -1.3644 -7.2429 -3.7958 -8.9249 -2.0902 -3.4749 26.9579 0.0940 -2.5926 10.1850 0.0000 0.0000 0.0000 30.2117 -44.9212 -30.1898 154.2110 -36.9996 111.2397 39.2153 -19.7996 13.4389 0.0 0.0 0.0 -7.1250 0.0 0.0 7.9492 12.9605 6.0234 0.0000 0.0000 0.0000 -2.5061 -1.0696 15.058 -10.4781 -17.4839 -1.6156 -20.3363 -0.1022 20.7079 0.0 0.0 0.0 7.1250 0.0 -0.0 8.3827 51.7465 -1.4009
9.3676 17.8526 -17.3375 -3.0382 -7.2530 -2.2686 0.0000 0.0000 0.0000 -14.0037 2.2152 3.4675 1.1488 6.8055 19.1405 0.8653 0.5394 -17.7823 0.0521 -1.4732 -4.0518 0.0000 0.0000 0.0000 22.5757 4.6759 1.2482 -1.9693 -8.8018 25.1773 -0.6806 -4.8796 -18.1146 -0.0387 -1.2692 3.4898 0.7036 -0.4443 2.6713 2.7662 -0.5358 0.1712 2.4646 -0.2659 -1.3022 -7.2776 -3.8191 -9.0200 -1.9964 -3.5181 26.8645 0.1272 -2.6028 10.1726 -0.0000 -0.0000 0.0000 30.1386 -45.2701 -30.2314 154.2760 -36.9348 111.2787 38.8845 -19.6064 12.941 0.0 0.0 0.0 -7.1250 0.0 0.0 7.8145 13.6435 5.8061 -0.0000 -0.0000 0.0000 -2.5476 -0.9659 14.8823 -10.3673 -17.312 -1.5825 -19.9813 -0.7487 19.0364 0.0 0.0 0.0 7.1250 0.0 -0.0 8.1980 49.9623 -1.0088
9.3648 17.8499 -17.3463 -3.3020 -7.0875 -2.2158 0.0000 0.0000 0.0000 -13.6701 2.0739 3.2614 1.1858 6.9106 19.4508 0.8848 0.3536 -17.9097 0.0464 -1.3896 -3.8214 0.0000 0.0000 0.0000 22.9509 4.7888 1.3669 -1.9383 -8.7363 24.9739 -0.6817 -5.0596 -18.2490 -0.0502 -1.4457 3.9760 0.8911 -0.5086 2.6937 2.8482 -0.6159 0.2159 2.4466 -0.3072 -1.2670 -7.3062 -3.7797 -9.0079 -1.8143 -3.5096 26.6336 0.2008 -2.5751 10.0884 -0.0000 0.0000 0.0000 30.0977 -45.3248 -30.2916 154.1553 -37.0549 111.2061 39.2448 -19.9536 13.5372 0.0 0.0 0.0 -7.1250 0.0 0.0 7.9519 12.8327 6.047 -0.0000 0.0000 0.0000 -2.4659 -0.9977 14.6452 -10.4256 -17.4026 -1.5999 -20.147 -0.0653 20.2702 0.0 0.0 0.0 7.1250 0.0 -0.0 8.4247 51.2628 -1.3075
